<svg xmlns="http://www.w3.org/2000/svg" width="16" height="16" version="1.0"><path d="M8 .959a6.02 6.02 0 0 0-6.021 6.016v4.66A1.369 1.369 0 0 0 3.348 13h4.654A6.02 6.02 0 1 0 8 .959zm1.158 2.73c.181 0 .31.02.477.063.244.064.445.265.445.498 0 .282-.204.486-.51.486-.145 0-.199-.027-.412-.027a1.14 1.14 0 0 0-1.14 1.137v.986c0 .089.073.16.162.16h.748a.503.503 0 1 1 0 1.006h-.91v1.15a2.157 2.157 0 0 1-2.159 2.159c-.18 0-.31-.02-.478-.063-.244-.064-.443-.265-.443-.498 0-.281.204-.486.51-.486.145 0 .198.027.411.027.63 0 1.138-.508 1.14-1.137v-.992a.16.16 0 0 0-.161-.16h-.75a.5.5 0 0 1-.504-.502c0-.281.228-.504.51-.504h.904V5.848a2.16 2.16 0 0 1 2.16-2.159z"/><g transform="matrix(.2 0 0 .2 -25.6 -111.1)" stroke-width="5" color="#000"><rect ry="4" rx="4" y="625.5" x="138" height="8" width="59.946" style="marker:none" overflow="visible" opacity=".257"/><rect ry="4" rx="4" y="625.5" x="138" height="8" width="38.125" style="marker:none" overflow="visible"/></g></svg>