<?xml version="1.0" encoding="UTF-8" standalone="no"?>
<svg
   xmlns:dc="http://purl.org/dc/elements/1.1/"
   xmlns:cc="http://creativecommons.org/ns#"
   xmlns:rdf="http://www.w3.org/1999/02/22-rdf-syntax-ns#"
   xmlns:svg="http://www.w3.org/2000/svg"
   xmlns="http://www.w3.org/2000/svg"
   xmlns:sodipodi="http://sodipodi.sourceforge.net/DTD/sodipodi-0.dtd"
   xmlns:inkscape="http://www.inkscape.org/namespaces/inkscape"
   version="1.1"
   width="280"
   height="80"
   id="svg2855"
   inkscape:version="1.0.2 (e86c870879, 2021-01-15)"
   sodipodi:docname="fedora_lightbackground.svg">
  <metadata
     id="metadata14">
    <rdf:RDF>
      <cc:Work
         rdf:about="">
        <dc:format>image/svg+xml</dc:format>
        <dc:type
           rdf:resource="http://purl.org/dc/dcmitype/StillImage" />
        <dc:title></dc:title>
      </cc:Work>
    </rdf:RDF>
  </metadata>
  <sodipodi:namedview
     pagecolor="#ffffff"
     bordercolor="#666666"
     borderopacity="1"
     objecttolerance="10"
     gridtolerance="10"
     guidetolerance="10"
     inkscape:pageopacity="0"
     inkscape:pageshadow="2"
     inkscape:window-width="2560"
     inkscape:window-height="1369"
     id="namedview12"
     showgrid="false"
     fit-margin-top="0"
     fit-margin-left="0"
     fit-margin-right="0"
     fit-margin-bottom="0"
     inkscape:zoom="1.25"
     inkscape:cx="120.85372"
     inkscape:cy="64.520674"
     inkscape:window-x="2560"
     inkscape:window-y="34"
     inkscape:window-maximized="1"
     inkscape:current-layer="svg2855"
     inkscape:document-rotation="0"
     inkscape:snap-global="false" />
  <defs
     id="defs2857" />
  <path
     id="path1616"
     style="opacity:0.5;fill:#51a2da;fill-opacity:1;fill-rule:nonzero;stroke:none;stroke-width:1.33335"
     d="M 41.00037,0 C 18.91761,0 1.0234,17.896326 1.009,39.974114 H 1 v 30.955768 h 0.009 c 0.0111,5.012215 4.07263,9.070119 9.08737,9.070119 h 0.0431 0.009 30.86949 C 63.10349,79.985911 80.99232,62.092012 80.99232,40.008629 80.99234,17.915879 63.09375,0 41.00097,0 Z m 69.94606,16.146712 c -8.4551,0 -13.879354,6.424389 -13.928804,12.435814 v 34.847891 c -0.0091,4.296698 6.533674,4.296698 6.524274,0 V 40.1726 h 6.7055 c 1.56892,0 2.9083,-1.136786 2.9083,-2.960084 0,-1.823288 -1.43499,-2.925568 -2.9083,-2.925568 h -6.7055 v -5.359223 c 0,-3.43037 2.68399,-6.288319 8.0863,-6.222222 1.87908,0.02429 2.54132,0.47918 3.22761,0.897519 3.74659,2.481572 7.35034,-3.264254 3.42612,-5.462783 -2.40673,-1.472724 -4.65252,-1.993527 -7.3355,-1.993527 z m -61.8425,0.31931 c 6.7168,0 13.05717,5.143681 13.05717,12.237326 0,0.657887 0.004,1.316436 -0.10356,2.062566 -0.18596,1.887363 -1.91063,3.243405 -3.78856,2.977346 -1.87795,-0.269221 -3.1522,-2.052625 -2.80475,-3.918014 0.0322,-0.212931 0.0433,-0.547278 0.0433,-1.121898 0,-4.021933 -3.29106,-5.574974 -6.40344,-5.574974 -3.11051,0 -5.91274,2.615921 -5.92017,5.574974 0.0537,3.422833 0,6.819196 0,10.235167 l 5.77345,-0.0433 c 4.50705,-0.09342 4.55814,6.696844 0.0518,6.662354 l -5.82524,0.04329 c -0.0141,2.753081 0.023,2.25528 0.009,3.641858 0,0 0.0489,3.367391 -0.0518,5.920176 -0.69672,7.497376 -7.08035,13.48867 -14.74865,13.48867 -8.12774,0 -14.82633,-6.644049 -14.82631,-14.791799 0.24416,-8.381942 6.92715,-14.973623 15.34412,-14.895367 l 4.69472,-0.03466 v 6.653723 l -4.69472,0.0433 h -0.0258 c -4.626,0.13671 -8.58875,3.278999 -8.6645,8.233006 0,4.513937 3.64614,8.12945 8.1726,8.129446 4.51896,0 8.13807,-3.288892 8.13807,-8.120815 l -0.009,-25.19115 c 0.002,-0.467644 0.0177,-0.839105 0.0691,-1.354909 0.76308,-6.162184 6.2756,-10.856527 12.5135,-10.856524 z m 133.30744,0.30205 c -2.03494,-0.108997 -3.53164,1.906466 -3.21898,3.823086 V 35.43474 c -6.45258,-5.409976 -16.95593,-5.032608 -22.91262,0.957926 -6.02389,5.367636 -7.16865,15.096007 -2.78749,21.799356 3.21822,5.060653 9.1046,8.674886 15.17152,8.388347 3.81491,-0.03502 7.59521,-1.68374 10.52859,-4.116509 -0.30097,1.92058 1.18304,3.955028 3.23624,3.831719 2.01543,0.0898 3.58014,-1.898935 3.27077,-3.823084 -0.035,-14.273885 0.0354,-28.54863 -0.0347,-42.822007 -0.10435,-1.603982 -1.63529,-2.927141 -3.23607,-2.882418 h -0.009 z m 25.20821,14.532902 A 17.821522,17.677588 0 0 0 189.79864,48.975193 17.821522,17.677588 0 0 0 207.61958,66.65804 17.821522,17.677588 0 0 0 225.4405,48.975193 17.821522,17.677588 0 0 0 207.61958,31.300974 Z m 58.20927,0.155339 c -4.44867,0 -7.65482,1.32116 -9.99353,2.994609 -3.54535,2.538235 0.26911,7.845679 3.81445,5.307438 1.61361,-1.154587 2.81217,-1.769137 6.17908,-1.769137 4.19086,0.08418 7.55986,1.655324 7.55986,4.789637 -2.24685,1.421725 -12.01426,2.600588 -17.25997,5.583604 -5.2457,2.982977 -4.97088,6.747994 -4.97088,9.190938 0,5.358688 5.65352,8.975186 10.54586,8.975186 4.89234,0 6.96771,-1.026484 11.75404,-4.306364 v 0.93204 c -0.15457,4.501461 6.68757,4.501461 6.53289,0 V 43.918022 c 0.0212,-7.978376 -5.70223,-12.340199 -14.1618,-12.461709 z m -32.44876,0.06905 c -2.83108,0 -3.30282,2.337046 -3.28803,3.279396 v 28.375404 c -0.0773,1.834142 1.43944,3.35706 3.33981,3.35706 1.90035,0 3.41735,-1.522918 3.33981,-3.35706 0,0 0.0504,-10.556996 0,-17.311768 -0.0504,-6.754757 5.44846,-8.215741 7.36138,-8.215741 1.4205,0 2.55939,0.793094 3.685,0.750808 1.67066,-0.06286 3.03776,-1.185344 3.03776,-3.149953 -0.0502,-3.173666 -3.93831,-3.622812 -6.80907,-3.564184 -2.87077,0.05873 -5.29672,0.93841 -7.39589,2.192015 0,0 -0.43965,-2.355986 -3.27077,-2.355984 z m -100.23733,0.06903 c -2.16713,-0.166675 -4.56132,0.180777 -7.19741,1.199571 -6.37976,2.465652 -10.70929,8.523587 -10.72708,15.999999 -0.0184,7.831507 5.46239,17.93615 16.82849,18.010784 7.64495,0.05022 11.46794,-2.80531 13.53182,-4.746492 1.36903,-1.213159 1.47023,-3.321359 0.21573,-4.651564 -1.25698,-1.332711 -3.36629,-1.365376 -4.6602,-0.06904 -1.54052,1.447271 -3.80992,3.596662 -10.24379,2.882418 -2.76059,-0.305501 -5.72404,-2.548311 -6.71413,-4.263219 l 21.07443,-8.966567 c 1.6119,-0.716126 2.35652,-2.58573 1.67422,-4.211431 -2.82235,-5.553663 -7.28068,-10.684427 -13.78208,-11.184455 z m 74.47682,6.325782 A 11.147509,11.057478 0 0 1 218.76952,48.9752 11.147509,11.057478 0 0 1 207.61958,60.038839 11.147509,11.057478 0 0 1 196.46963,48.9752 11.147509,11.057478 0 0 1 207.61958,37.92018 Z m -39.34413,0.172608 c 5.82544,-0.152098 11.02649,5.093197 10.91694,10.865154 0.12241,5.777332 -5.09639,11.013518 -10.91694,10.865153 -5.53427,0.146751 -10.60828,-4.540712 -10.89104,-10.036674 -0.58933,-5.665422 4.06352,-11.192197 9.76051,-11.641857 0.37584,-0.03669 0.75259,-0.05182 1.13053,-0.05182 z m -36.78102,0.172575 c 3.16945,0.003 6.15983,1.637632 7.68069,4.271846 l -17.54476,7.490829 c -1.2525,-4.674366 3.88777,-10.169755 6.68824,-11.193094 1.04972,-0.383577 2.11936,-0.570567 3.17583,-0.569581 z m 142.11868,10.942828 c -0.002,2.11548 0.0318,2.726688 -0.0247,4.841432 -0.0141,2.539676 -1.60886,3.714369 -3.27941,4.686082 -1.67055,0.971706 -5.06735,1.822721 -7.03343,1.915853 -2.26779,0.07495 -5.27026,-0.43452 -5.42828,-3.124051 0.002,-1.62343 0.78854,-2.632795 2.07983,-3.754048 3.05777,-2.294038 7.19532,-3.061905 13.68718,-4.565268 z" />
</svg>
