<?xml version="1.0" encoding="UTF-8"?>
<svg id="Capa_2" data-name="Capa 2" xmlns="http://www.w3.org/2000/svg" viewBox="0 0 215.61 215.61">
  <defs>
    <style>
      .cls-1 {
        letter-spacing: -.02em;
      }

      .cls-2 {
        fill: #4a2554;
      }

      .cls-2, .cls-3, .cls-4, .cls-5 {
        stroke-width: 0px;
      }

      .cls-3 {
        fill: #70982d;
      }

      .cls-4 {
        fill: #bba126;
      }

      .cls-6 {
        letter-spacing: 0em;
      }

      .cls-7 {
        fill: #fff;
        font-family: Montserrat-ExtraBold, Montserrat;
        font-size: 34.33px;
        font-weight: 700;
      }

      .cls-5 {
        fill: #a465a5;
      }
    </style>
  </defs>
  <g id="Capa_1-2" data-name="Capa 1">
    <g>
      <rect class="cls-2" width="215.61" height="215.61"/>
      <text class="cls-7" transform="translate(57.05 191.96)"><tspan x="0" y="0">Utu</tspan><tspan class="cls-1" x="66.09" y="0">t</tspan><tspan class="cls-6" x="80.89" y="0">o</tspan></text>
      <g>
        <path class="cls-4" d="M62.15,38.44l3.14-2.6v-2.51l-3.14-2.49-2.5,3.8,2.5,3.79s0,0,0,0Z"/>
        <path class="cls-4" d="M68.69,38.44l3.14-2.6v-2.51l-3.14-2.49-2.5,3.8,2.5,3.79s0,0,0,0Z"/>
        <path class="cls-4" d="M58.88,44.38l3.14-2.6v-2.51l-3.14-2.49-2.5,3.8,2.5,3.79s0,0,0,0Z"/>
        <path class="cls-4" d="M65.42,44.38s0,0,0,0l3.14-2.6v-2.51l-3.14-2.49-2.5,3.8,2.5,3.79Z"/>
        <path class="cls-4" d="M71.95,44.38s0,0,0,0l3.14-2.6v-2.51l-3.14-2.49-2.5,3.8,2.5,3.79Z"/>
        <path class="cls-4" d="M59.65,58.41l2.5,3.79s0,0,0,0l3.14-2.6v-2.51l-3.14-2.49-2.5,3.8Z"/>
        <path class="cls-4" d="M66.18,58.41l2.5,3.79s0,0,0,0l3.14-2.6v-2.51l-3.14-2.49-2.5,3.8Z"/>
        <path class="cls-4" d="M58.88,68.15l3.14-2.6v-2.51l-3.14-2.49-2.5,3.8,2.5,3.79s0,0,0,0Z"/>
        <path class="cls-4" d="M62.91,64.35l2.5,3.79s0,0,0,0l3.14-2.6v-2.51l-3.14-2.49-2.5,3.8Z"/>
        <path class="cls-4" d="M75.09,65.55v-2.51l-3.14-2.49-2.5,3.8,2.5,3.79s0,0,0,0l3.14-2.6Z"/>
        <path class="cls-4" d="M62.15,85.97s0,0,0,0l3.14-2.6v-2.51l-3.14-2.49-2.5,3.8,2.5,3.79Z"/>
        <path class="cls-4" d="M71.82,83.38v-2.51l-3.14-2.49-2.5,3.8,2.5,3.79s0,0,0,0l3.14-2.6Z"/>
        <path class="cls-4" d="M58.88,91.92l3.14-2.6v-2.51l-3.14-2.49-2.5,3.8,2.5,3.79s0,0,0,0Z"/>
        <path class="cls-4" d="M68.55,89.32v-2.51l-3.14-2.49-2.5,3.8,2.5,3.79s0,0,0,0l3.14-2.6Z"/>
        <path class="cls-4" d="M71.95,91.92l3.14-2.6v-2.51l-3.14-2.49-2.5,3.8,2.5,3.79s0,0,0,0Z"/>
        <path class="cls-4" d="M65.28,107.15v-2.51l-3.14-2.49-2.5,3.8,2.5,3.79s0,0,0,0l3.14-2.6Z"/>
        <path class="cls-4" d="M71.82,107.15v-2.51l-3.14-2.49-2.5,3.8,2.5,3.79s0,0,0,0l3.14-2.6Z"/>
        <path class="cls-4" d="M75.22,109.74s0,0,0,0l3.14-2.6v-2.51l-3.14-2.49-2.5,3.8,2.5,3.79Z"/>
        <path class="cls-4" d="M62.01,113.09v-2.51l-3.14-2.49-2.5,3.8,2.5,3.79s0,0,0,0l3.14-2.6Z"/>
        <path class="cls-4" d="M62.91,111.89l2.5,3.79s0,0,0,0l3.14-2.6v-2.51l-3.14-2.49-2.5,3.8Z"/>
        <path class="cls-4" d="M75.09,113.09v-2.51l-3.14-2.49-2.5,3.8,2.5,3.79s0,0,0,0l3.14-2.6Z"/>
        <path class="cls-4" d="M59.65,117.84l2.5,3.79s0,0,0,0l3.14-2.6v-2.51l-3.14-2.49-2.5,3.8Z"/>
        <path class="cls-4" d="M82.53,123.78l2.5,3.79s0,0,0,0l3.14-2.6v-2.51l-3.14-2.49-2.5,3.8Z"/>
        <path class="cls-4" d="M78.36,130.92v-2.51l-3.14-2.49-2.5,3.8,2.5,3.79s0,0,0,0l3.14-2.6Z"/>
        <path class="cls-4" d="M79.26,129.72l2.5,3.79s0,0,0,0l3.14-2.6v-2.51l-3.14-2.49-2.5,3.8Z"/>
        <path class="cls-4" d="M69.45,135.66l2.5,3.79s0,0,0,0l3.14-2.6v-2.51l-3.14-2.49-2.5,3.8Z"/>
        <path class="cls-4" d="M75.99,135.66l2.5,3.79s0,0,0,0l3.14-2.6v-2.51l-3.14-2.49-2.5,3.8Z"/>
        <path class="cls-4" d="M98.11,127.57l3.14-2.6v-2.51l-3.14-2.49-2.5,3.8,2.5,3.79s0,0,0,0Z"/>
        <path class="cls-4" d="M94.84,133.52l3.14-2.6v-2.51l-3.14-2.49-2.5,3.8,2.5,3.79s0,0,0,0Z"/>
        <path class="cls-4" d="M98.87,129.72l2.5,3.79s0,0,0,0l3.14-2.6v-2.51l-3.14-2.49-2.5,3.8Z"/>
        <path class="cls-4" d="M101.24,136.86v-2.51l-3.14-2.49-2.5,3.8,2.5,3.79s0,0,0,0l3.14-2.6Z"/>
        <path class="cls-4" d="M92.33,141.61l2.5,3.79s0,0,0,0l3.14-2.6v-2.51l-3.14-2.49-2.5,3.8Z"/>
        <path class="cls-4" d="M98.87,141.61l2.5,3.79s0,0,0,0l3.14-2.6v-2.51l-3.14-2.49-2.5,3.8Z"/>
        <path class="cls-4" d="M168.3,61.67s.01,0,.02,0l3.14-2.2v-2.12l-3.15-2.11c-1.34.6-2.49,1.79-2.49,3.17,0,1.45,1.02,2.7,2.49,3.26Z"/>
        <path class="cls-4" d="M175.94,55.24c-1.34.6-2.49,1.79-2.49,3.17,0,1.45,1.02,2.7,2.49,3.26,0,0,.01,0,.02,0l3.14-2.2v-2.12l-3.15-2.11Z"/>
        <path class="cls-4" d="M111.02,67.6s.01,0,.02,0l3.14-2.2v-2.12l-3.15-2.11c-1.34.6-2.49,1.79-2.49,3.17,0,1.45,1.02,2.7,2.49,3.26Z"/>
        <path class="cls-4" d="M116.17,64.34c0,1.45,1.02,2.7,2.49,3.26,0,0,.01,0,.02,0l3.14-2.2v-2.12l-3.15-2.11c-1.34.6-2.49,1.79-2.49,3.17Z"/>
        <path class="cls-4" d="M169.63,64.34c0,1.45,1.02,2.7,2.49,3.26,0,0,.01,0,.02,0l3.14-2.2v-2.12l-3.15-2.11c-1.34.6-2.49,1.79-2.49,3.17Z"/>
        <path class="cls-4" d="M112.35,70.27c0,1.45,1.02,2.7,2.49,3.26,0,0,.01,0,.02,0l3.14-2.2v-2.12l-3.15-2.11c-1.34.6-2.49,1.79-2.49,3.17Z"/>
        <path class="cls-4" d="M158.18,70.27c0,1.45,1.02,2.7,2.49,3.26,0,0,.01,0,.02,0l3.14-2.2v-2.12l-3.15-2.11c-1.34.6-2.49,1.79-2.49,3.17Z"/>
        <path class="cls-4" d="M165.81,70.27c0,1.45,1.02,2.7,2.49,3.26,0,0,.01,0,.02,0l3.14-2.2v-2.12l-3.15-2.11c-1.34.6-2.49,1.79-2.49,3.17Z"/>
        <path class="cls-4" d="M116.17,76.2c0,1.45,1.02,2.7,2.49,3.26,0,0,.01,0,.02,0l3.14-2.2v-2.12l-3.15-2.11c-1.34.6-2.49,1.79-2.49,3.17Z"/>
        <path class="cls-4" d="M123.81,76.2c0,1.45,1.02,2.7,2.49,3.26,0,0,.01,0,.02,0l3.14-2.2v-2.12l-3.15-2.11c-1.34.6-2.49,1.79-2.49,3.17Z"/>
        <path class="cls-4" d="M110.35,104.8l-3.15-2.11c-1.34.6-2.49,1.79-2.49,3.17,0,1.45,1.02,2.7,2.49,3.26,0,0,.01,0,.02,0l3.14-2.2v-2.12Z"/>
        <path class="cls-4" d="M112.35,105.86c0,1.45,1.02,2.7,2.49,3.26,0,0,.01,0,.02,0l3.14-2.2v-2.12l-3.15-2.11c-1.34.6-2.49,1.79-2.49,3.17Z"/>
        <path class="cls-4" d="M114.17,110.74l-3.15-2.11c-1.34.6-2.49,1.79-2.49,3.17,0,1.45,1.02,2.7,2.49,3.26,0,0,.01,0,.02,0l3.14-2.2v-2.12Z"/>
        <path class="cls-4" d="M112.35,117.73c0,1.45,1.02,2.7,2.49,3.26,0,0,.01,0,.02,0l3.14-2.2v-2.12l-3.15-2.11c-1.34.6-2.49,1.79-2.49,3.17Z"/>
        <path class="cls-4" d="M145.39,132.86s.01,0,.02,0l3.14-2.2v-2.12l-3.15-2.11c-1.34.6-2.49,1.79-2.49,3.17,0,1.45,1.02,2.7,2.49,3.26Z"/>
        <path class="cls-4" d="M152.36,134.47l-3.15-2.11c-1.34.6-2.49,1.79-2.49,3.17,0,1.45,1.02,2.7,2.49,3.26,0,0,.01,0,.02,0l3.14-2.2v-2.12Z"/>
        <path class="cls-4" d="M142.9,141.46c0,1.45,1.02,2.7,2.49,3.26,0,0,.01,0,.02,0l3.14-2.2v-2.12l-3.15-2.11c-1.34.6-2.49,1.79-2.49,3.17Z"/>
        <path class="cls-4" d="M150.54,141.46c0,1.45,1.02,2.7,2.49,3.26,0,0,.01,0,.02,0l3.14-2.2v-2.12l-3.15-2.11c-1.34.6-2.49,1.79-2.49,3.17Z"/>
      </g>
      <g>
        <path class="cls-5" d="M65.42,32.5l3.14-2.6v-2.51l-3.14-2.49-2.5,3.8,2.5,3.79s0,0,0,0Z"/>
        <path class="cls-5" d="M62.15,50.32l3.14-2.6v-2.51l-3.14-2.49-2.5,3.8,2.5,3.79s0,0,0,0Z"/>
        <path class="cls-5" d="M68.69,50.32s0,0,0,0l3.14-2.6v-2.51l-3.14-2.49-2.5,3.8,2.5,3.79Z"/>
        <path class="cls-5" d="M58.88,56.27l3.14-2.6v-2.51l-3.14-2.49-2.5,3.8,2.5,3.79s0,0,0,0Z"/>
        <path class="cls-5" d="M62.91,52.47l2.5,3.79s0,0,0,0l3.14-2.6v-2.51l-3.14-2.49-2.5,3.8Z"/>
        <path class="cls-5" d="M71.95,56.26s0,0,0,0l3.14-2.6v-2.51l-3.14-2.49-2.5,3.8,2.5,3.79Z"/>
        <path class="cls-5" d="M65.28,71.49v-2.51l-3.14-2.49-2.5,3.8,2.5,3.79s0,0,0,0l3.14-2.6Z"/>
        <path class="cls-5" d="M71.82,71.49v-2.51l-3.14-2.49-2.5,3.8,2.5,3.79s0,0,0,0l3.14-2.6Z"/>
        <path class="cls-5" d="M58.88,80.04l3.14-2.6v-2.51l-3.14-2.49-2.5,3.8,2.5,3.79s0,0,0,0Z"/>
        <path class="cls-5" d="M65.42,80.04l3.14-2.6v-2.51l-3.14-2.49-2.5,3.8,2.5,3.79s0,0,0,0Z"/>
        <path class="cls-5" d="M75.09,74.93l-3.14-2.49-2.5,3.8,2.5,3.79s0,0,0,0l3.14-2.6v-2.51Z"/>
        <path class="cls-5" d="M65.28,95.26v-2.51l-3.14-2.49-2.5,3.8,2.5,3.79s0,0,0,0l3.14-2.6Z"/>
        <path class="cls-5" d="M71.82,95.26v-2.51l-3.14-2.49-2.5,3.8,2.5,3.79s0,0,0,0l3.14-2.6Z"/>
        <path class="cls-5" d="M56.38,100.01l2.5,3.79s0,0,0,0l3.14-2.6v-2.51l-3.14-2.49-2.5,3.8Z"/>
        <path class="cls-5" d="M68.55,101.2v-2.51l-3.14-2.49-2.5,3.8,2.5,3.79s0,0,0,0l3.14-2.6Z"/>
        <path class="cls-5" d="M75.09,101.2v-2.51l-3.14-2.49-2.5,3.8,2.5,3.79s0,0,0,0l3.14-2.6Z"/>
        <path class="cls-5" d="M78.49,115.69l3.14-2.6v-2.51l-3.14-2.49-2.5,3.8,2.5,3.79s0,0,0,0Z"/>
        <path class="cls-5" d="M71.82,119.03v-2.51l-3.14-2.49-2.5,3.8,2.5,3.79s0,0,0,0l3.14-2.6Z"/>
        <path class="cls-5" d="M78.36,119.03v-2.51l-3.14-2.49-2.5,3.8,2.5,3.79s0,0,0,0l3.14-2.6Z"/>
        <path class="cls-5" d="M81.76,121.63s0,0,0,0l3.14-2.6v-2.51l-3.14-2.49-2.5,3.8,2.5,3.79Z"/>
        <path class="cls-5" d="M68.55,124.97v-2.51l-3.14-2.49-2.5,3.8,2.5,3.79s0,0,0,0l3.14-2.6Z"/>
        <path class="cls-5" d="M69.45,123.78l2.5,3.79s0,0,0,0l3.14-2.6v-2.51l-3.14-2.49-2.5,3.8Z"/>
        <path class="cls-5" d="M81.63,124.97v-2.51l-3.14-2.49-2.5,3.8,2.5,3.79s0,0,0,0l3.14-2.6Z"/>
        <path class="cls-5" d="M66.18,129.72l2.5,3.79s0,0,0,0l3.14-2.6v-2.51l-3.14-2.49-2.5,3.8Z"/>
        <path class="cls-5" d="M89.07,123.78l2.5,3.79s0,0,0,0l3.14-2.6v-2.51l-3.14-2.49-2.5,3.8Z"/>
        <path class="cls-5" d="M88.3,133.52l3.14-2.6v-2.51l-3.14-2.49-2.5,3.8,2.5,3.79s0,0,0,0Z"/>
        <path class="cls-5" d="M88.17,136.86v-2.51l-3.14-2.49-2.5,3.8,2.5,3.79s0,0,0,0l3.14-2.6Z"/>
        <path class="cls-5" d="M89.07,135.66l2.5,3.79s0,0,0,0l3.14-2.6v-2.51l-3.14-2.49-2.5,3.8Z"/>
        <path class="cls-5" d="M79.26,141.61l2.5,3.79s0,0,0,0l3.14-2.6v-2.51l-3.14-2.49-2.5,3.8Z"/>
        <path class="cls-5" d="M85.8,141.61l2.5,3.79s0,0,0,0l3.14-2.6v-2.51l-3.14-2.49-2.5,3.8Z"/>
        <path class="cls-5" d="M104.64,127.57l3.14-2.6v-2.51l-3.14-2.49-2.5,3.8,2.5,3.79s0,0,0,0Z"/>
        <path class="cls-5" d="M111.18,127.57l3.14-2.6v-2.51l-3.14-2.49-2.5,3.8,2.5,3.79s0,0,0,0Z"/>
        <path class="cls-5" d="M107.91,133.51s0,0,0,0l3.14-2.6v-2.51l-3.14-2.49-2.5,3.8,2.5,3.79Z"/>
        <path class="cls-5" d="M114.85,133.51s0,0,0,0l3.14-2.6v-2.51l-3.14-2.49-2.5,3.8,2.5,3.79Z"/>
        <path class="cls-5" d="M107.78,136.86v-2.51l-3.14-2.49-2.5,3.8,2.5,3.79s0,0,0,0l3.14-2.6Z"/>
        <path class="cls-5" d="M114.32,136.86v-2.51l-3.14-2.49-2.5,3.8,2.5,3.79s0,0,0,0l3.14-2.6Z"/>
        <path class="cls-5" d="M121.81,136.86v-2.51l-3.14-2.49-2.5,3.8,2.5,3.79s0,0,0,0l3.14-2.6Z"/>
        <path class="cls-5" d="M105.41,141.61l2.5,3.79s0,0,0,0l3.14-2.6v-2.51l-3.14-2.49-2.5,3.8Z"/>
        <path class="cls-5" d="M111.95,141.61l2.5,3.79s0,0,0,0l3.14-2.6v-2.51l-3.14-2.49-2.5,3.8Z"/>
        <path class="cls-5" d="M119.99,141.61l2.5,3.79s0,0,0,0l3.14-2.6v-2.51l-3.14-2.49-2.5,3.8Z"/>
        <path class="cls-5" d="M131.44,64.34c0,1.45,1.02,2.7,2.49,3.26,0,0,.01,0,.02,0l3.14-2.2v-2.12l-3.15-2.11c-1.34.6-2.49,1.79-2.49,3.17Z"/>
        <path class="cls-5" d="M139.08,64.34c0,1.45,1.02,2.7,2.49,3.26,0,0,.01,0,.02,0l3.14-2.2v-2.12l-3.15-2.11c-1.34.6-2.49,1.79-2.49,3.17Z"/>
        <path class="cls-5" d="M146.72,64.34c0,1.45,1.02,2.7,2.49,3.26,0,0,.01,0,.02,0l3.14-2.2v-2.12l-3.15-2.11c-1.34.6-2.49,1.79-2.49,3.17Z"/>
        <path class="cls-5" d="M127.63,70.27c0,1.45,1.02,2.7,2.49,3.26,0,0,.01,0,.02,0l3.14-2.2v-2.12l-3.15-2.11c-1.34.6-2.49,1.79-2.49,3.17Z"/>
        <path class="cls-5" d="M135.26,70.27c0,1.45,1.02,2.7,2.49,3.26,0,0,.01,0,.02,0l3.14-2.2v-2.12l-3.15-2.11c-1.34.6-2.49,1.79-2.49,3.17Z"/>
        <path class="cls-5" d="M148.54,69.21l-3.15-2.11c-1.34.6-2.49,1.79-2.49,3.17,0,1.45,1.02,2.7,2.49,3.26,0,0,.01,0,.02,0l3.14-2.2v-2.12Z"/>
        <path class="cls-5" d="M131.44,76.2c0,1.45,1.02,2.7,2.49,3.26,0,0,.01,0,.02,0l3.14-2.2v-2.12l-3.15-2.11c-1.34.6-2.49,1.79-2.49,3.17Z"/>
        <path class="cls-5" d="M144.72,75.14l-3.15-2.11c-1.34.6-2.49,1.79-2.49,3.17,0,1.45,1.02,2.7,2.49,3.26,0,0,.01,0,.02,0l3.14-2.2v-2.12Z"/>
        <path class="cls-5" d="M146.72,76.2c0,1.45,1.02,2.7,2.49,3.26,0,0,.01,0,.02,0l3.14-2.2v-2.12l-3.15-2.11c-1.34.6-2.49,1.79-2.49,3.17Z"/>
        <path class="cls-5" d="M160,75.14l-3.15-2.11c-1.34.6-2.49,1.79-2.49,3.17,0,1.45,1.02,2.7,2.49,3.26,0,0,.01,0,.02,0l3.14-2.2v-2.12Z"/>
        <path class="cls-5" d="M164.48,73.04c-1.34.6-2.49,1.79-2.49,3.17,0,1.45,1.02,2.7,2.49,3.26,0,0,.01,0,.02,0l3.14-2.2v-2.12l-3.15-2.11Z"/>
        <path class="cls-5" d="M122.47,85.4s.01,0,.02,0l3.14-2.2v-2.12l-3.15-2.11c-1.34.6-2.49,1.79-2.49,3.17,0,1.45,1.02,2.7,2.49,3.26Z"/>
        <path class="cls-5" d="M130.11,85.4s.01,0,.02,0l3.14-2.2v-2.12l-3.15-2.11c-1.34.6-2.49,1.79-2.49,3.17,0,1.45,1.02,2.7,2.49,3.26Z"/>
        <path class="cls-5" d="M140.9,81.07l-3.15-2.11c-1.34.6-2.49,1.79-2.49,3.17,0,1.45,1.02,2.7,2.49,3.26,0,0,.01,0,.02,0l3.14-2.2v-2.12Z"/>
        <path class="cls-5" d="M148.54,81.07l-3.15-2.11c-1.34.6-2.49,1.79-2.49,3.17,0,1.45,1.02,2.7,2.49,3.26,0,0,.01,0,.02,0l3.14-2.2v-2.12Z"/>
        <path class="cls-5" d="M158.18,82.14c0,1.45,1.02,2.7,2.49,3.26,0,0,.01,0,.02,0l3.14-2.2v-2.12l-3.15-2.11c-1.34.6-2.49,1.79-2.49,3.17Z"/>
        <path class="cls-5" d="M131.44,88.07c0,1.45,1.02,2.7,2.49,3.26,0,0,.01,0,.02,0l3.14-2.2v-2.12l-3.15-2.11c-1.34.6-2.49,1.79-2.49,3.17Z"/>
        <path class="cls-5" d="M144.72,87.01l-3.15-2.11c-1.34.6-2.49,1.79-2.49,3.17,0,1.45,1.02,2.7,2.49,3.26,0,0,.01,0,.02,0l3.14-2.2v-2.12Z"/>
        <path class="cls-5" d="M146.72,88.07c0,1.45,1.02,2.7,2.49,3.26,0,0,.01,0,.02,0l3.14-2.2v-2.12l-3.15-2.11c-1.34.6-2.49,1.79-2.49,3.17Z"/>
        <path class="cls-5" d="M130.11,97.26s.01,0,.02,0l3.14-2.2v-2.12l-3.15-2.11c-1.34.6-2.49,1.79-2.49,3.17,0,1.45,1.02,2.7,2.49,3.26Z"/>
        <path class="cls-5" d="M135.26,94c0,1.45,1.02,2.7,2.49,3.26,0,0,.01,0,.02,0l3.14-2.2v-2.12l-3.15-2.11c-1.34.6-2.49,1.79-2.49,3.17Z"/>
        <path class="cls-5" d="M148.54,92.94l-3.15-2.11c-1.34.6-2.49,1.79-2.49,3.17,0,1.45,1.02,2.7,2.49,3.26,0,0,.01,0,.02,0l3.14-2.2v-2.12Z"/>
        <path class="cls-5" d="M131.44,99.93c0,1.45,1.02,2.7,2.49,3.26,0,0,.01,0,.02,0l3.14-2.2v-2.12l-3.15-2.11c-1.34.6-2.49,1.79-2.49,3.17Z"/>
        <path class="cls-5" d="M141.58,103.2l3.14-2.2v-2.12l-3.15-2.11c-1.34.6-2.49,1.79-2.49,3.17,0,1.45,1.02,2.7,2.49,3.26,0,0,.01,0,.02,0Z"/>
        <path class="cls-5" d="M146.72,99.93c0,1.45,1.02,2.7,2.49,3.26,0,0,.01,0,.02,0l3.14-2.2v-2.12l-3.15-2.11c-1.34.6-2.49,1.79-2.49,3.17Z"/>
        <path class="cls-5" d="M130.11,109.13s.01,0,.02,0l3.14-2.2v-2.12l-3.15-2.11c-1.34.6-2.49,1.79-2.49,3.17,0,1.45,1.02,2.7,2.49,3.26Z"/>
        <path class="cls-5" d="M137.76,109.13l3.14-2.2v-2.12l-3.15-2.11c-1.34.6-2.49,1.79-2.49,3.17,0,1.45,1.02,2.7,2.49,3.26,0,0,.01,0,.02,0Z"/>
        <path class="cls-5" d="M145.4,109.13l3.14-2.2v-2.12l-3.15-2.11c-1.34.6-2.49,1.79-2.49,3.17,0,1.45,1.02,2.7,2.49,3.26,0,0,.01,0,.02,0Z"/>
        <path class="cls-5" d="M123.81,111.8c0,1.45,1.02,2.7,2.49,3.26,0,0,.01,0,.02,0l3.14-2.2v-2.12l-3.15-2.11c-1.34.6-2.49,1.79-2.49,3.17Z"/>
        <path class="cls-5" d="M131.44,111.8c0,1.45,1.02,2.7,2.49,3.26,0,0,.01,0,.02,0l3.14-2.2v-2.12l-3.15-2.11c-1.34.6-2.49,1.79-2.49,3.17Z"/>
        <path class="cls-5" d="M141.58,115.06l3.14-2.2v-2.12l-3.15-2.11c-1.34.6-2.49,1.79-2.49,3.17,0,1.45,1.02,2.7,2.49,3.26,0,0,.01,0,.02,0Z"/>
        <path class="cls-5" d="M146.72,111.8c0,1.45,1.02,2.7,2.49,3.26,0,0,.01,0,.02,0l3.14-2.2v-2.12l-3.15-2.11c-1.34.6-2.49,1.79-2.49,3.17Z"/>
        <path class="cls-5" d="M122.47,120.99s.01,0,.02,0l3.14-2.2v-2.12l-3.15-2.11c-1.34.6-2.49,1.79-2.49,3.17,0,1.45,1.02,2.7,2.49,3.26Z"/>
        <path class="cls-5" d="M130.13,120.99l3.14-2.2v-2.12l-3.15-2.11c-1.34.6-2.49,1.79-2.49,3.17,0,1.45,1.02,2.7,2.49,3.26,0,0,.01,0,.02,0Z"/>
        <path class="cls-5" d="M137.76,120.99l3.14-2.2v-2.12l-3.15-2.11c-1.34.6-2.49,1.79-2.49,3.17,0,1.45,1.02,2.7,2.49,3.26,0,0,.01,0,.02,0Z"/>
        <path class="cls-5" d="M142.9,117.73c0,1.45,1.02,2.7,2.49,3.26,0,0,.01,0,.02,0l3.14-2.2v-2.12l-3.15-2.11c-1.34.6-2.49,1.79-2.49,3.17Z"/>
        <path class="cls-5" d="M118.65,126.92s.01,0,.02,0l3.14-2.2v-2.12l-3.15-2.11c-1.34.6-2.49,1.79-2.49,3.17,0,1.45,1.02,2.7,2.49,3.26Z"/>
        <path class="cls-5" d="M126.31,126.93l3.14-2.2v-2.12l-3.15-2.11c-1.34.6-2.49,1.79-2.49,3.17,0,1.45,1.02,2.7,2.49,3.26,0,0,.01,0,.02,0Z"/>
        <path class="cls-5" d="M133.93,126.92s.01,0,.02,0l3.14-2.2v-2.12l-3.15-2.11c-1.34.6-2.49,1.79-2.49,3.17,0,1.45,1.02,2.7,2.49,3.26Z"/>
        <path class="cls-5" d="M139.08,123.66c0,1.45,1.02,2.7,2.49,3.26,0,0,.01,0,.02,0l3.14-2.2v-2.12l-3.15-2.11c-1.34.6-2.49,1.79-2.49,3.17Z"/>
        <path class="cls-5" d="M119.99,129.59c0,1.45,1.02,2.7,2.49,3.26,0,0,.01,0,.02,0l3.14-2.2v-2.12l-3.15-2.11c-1.34.6-2.49,1.79-2.49,3.17Z"/>
        <path class="cls-5" d="M133.26,128.53l-3.15-2.11c-1.34.6-2.49,1.79-2.49,3.17,0,1.45,1.02,2.7,2.49,3.26,0,0,.01,0,.02,0l3.14-2.2v-2.12Z"/>
        <path class="cls-5" d="M135.26,129.59c0,1.45,1.02,2.7,2.49,3.26,0,0,.01,0,.02,0l3.14-2.2v-2.12l-3.15-2.11c-1.34.6-2.49,1.79-2.49,3.17Z"/>
        <path class="cls-5" d="M123.81,135.53c0,1.45,1.02,2.7,2.49,3.26,0,0,.01,0,.02,0l3.14-2.2v-2.12l-3.15-2.11c-1.34.6-2.49,1.79-2.49,3.17Z"/>
        <path class="cls-5" d="M131.44,135.53c0,1.45,1.02,2.7,2.49,3.26,0,0,.01,0,.02,0l3.14-2.2v-2.12l-3.15-2.11c-1.34.6-2.49,1.79-2.49,3.17Z"/>
        <path class="cls-5" d="M136.65,25.27c1.36.79,3.11.32,3.9-1.04.79-1.36.32-3.11-1.04-3.9-1.36-.79-3.11-.32-3.9,1.04-.79,1.36-.32,3.11,1.04,3.9Z"/>
        <path class="cls-5" d="M132.79,31.21c1.36.79,3.11.32,3.9-1.04.79-1.36.32-3.11-1.04-3.9-1.36-.79-3.11-.32-3.9,1.04-.79,1.36-.32,3.11,1.04,3.9Z"/>
        <path class="cls-5" d="M128.94,37.15c1.36.79,3.11.32,3.9-1.04.79-1.36.32-3.11-1.04-3.9-1.36-.79-3.11-.32-3.9,1.04-.79,1.36-.32,3.11,1.04,3.9Z"/>
        <path class="cls-5" d="M128.94,49.03c1.36.79,3.11.32,3.9-1.04.79-1.36.32-3.11-1.04-3.9-1.36-.79-3.11-.32-3.9,1.04-.79,1.36-.32,3.11,1.04,3.9Z"/>
        <path class="cls-5" d="M128.94,60.91c1.36.79,3.11.32,3.9-1.04.79-1.36.32-3.11-1.04-3.9-1.36-.79-3.11-.32-3.9,1.04-.79,1.36-.32,3.11,1.04,3.9Z"/>
      </g>
      <g>
        <path class="cls-3" d="M150.54,70.27c0,1.45,1.02,2.7,2.49,3.26,0,0,.01,0,.02,0l3.14-2.2v-2.12l-3.15-2.11c-1.34.6-2.49,1.79-2.49,3.17Z"/>
        <path class="cls-3" d="M150.54,82.14c0,1.45,1.02,2.7,2.49,3.26,0,0,.01,0,.02,0l3.14-2.2v-2.12l-3.15-2.11c-1.34.6-2.49,1.79-2.49,3.17Z"/>
        <path class="cls-3" d="M150.54,94c0,1.45,1.02,2.7,2.49,3.26,0,0,.01,0,.02,0l3.14-2.2v-2.12l-3.15-2.11c-1.34.6-2.49,1.79-2.49,3.17Z"/>
        <path class="cls-3" d="M150.54,105.86c0,1.45,1.02,2.7,2.49,3.26,0,0,.01,0,.02,0l3.14-2.2v-2.12l-3.15-2.11c-1.34.6-2.49,1.79-2.49,3.17Z"/>
        <path class="cls-3" d="M144.35,25.27c1.36.79,3.11.32,3.9-1.04.79-1.36.32-3.11-1.04-3.9-1.36-.79-3.11-.32-3.9,1.04-.79,1.36-.32,3.11,1.04,3.9Z"/>
        <path class="cls-3" d="M140.5,31.21c1.36.79,3.11.32,3.9-1.04.79-1.36.32-3.11-1.04-3.9-1.36-.79-3.11-.32-3.9,1.04-.79,1.36-.32,3.11,1.04,3.9Z"/>
        <path class="cls-3" d="M147.16,27.31c-.79,1.36-.32,3.11,1.04,3.9s3.11.32,3.9-1.04c.79-1.36.32-3.11-1.04-3.9-1.36-.79-3.11-.32-3.9,1.04Z"/>
        <path class="cls-3" d="M136.65,37.15c1.36.79,3.11.32,3.9-1.04.79-1.36.32-3.11-1.04-3.9-1.36-.79-3.11-.32-3.9,1.04-.79,1.36-.32,3.11,1.04,3.9Z"/>
        <path class="cls-3" d="M144.35,37.15c1.36.79,3.11.32,3.9-1.04.79-1.36.32-3.11-1.04-3.9-1.36-.79-3.11-.32-3.9,1.04-.79,1.36-.32,3.11,1.04,3.9Z"/>
        <path class="cls-3" d="M151.02,33.25c-.79,1.36-.32,3.11,1.04,3.9s3.11.32,3.9-1.04c.79-1.36.32-3.11-1.04-3.9-1.36-.79-3.11-.32-3.9,1.04Z"/>
        <path class="cls-3" d="M132.79,43.09c1.36.79,3.11.32,3.9-1.04.79-1.36.32-3.11-1.04-3.9-1.36-.79-3.11-.32-3.9,1.04-.79,1.36-.32,3.11,1.04,3.9Z"/>
        <path class="cls-3" d="M144.4,42.05c.79-1.36.32-3.11-1.04-3.9-1.36-.79-3.11-.32-3.9,1.04-.79,1.36-.32,3.11,1.04,3.9s3.11.32,3.9-1.04Z"/>
        <path class="cls-3" d="M152.1,42.05c.79-1.36.32-3.11-1.04-3.9-1.36-.79-3.11-.32-3.9,1.04-.79,1.36-.32,3.11,1.04,3.9s3.11.32,3.9-1.04Z"/>
        <path class="cls-3" d="M139.5,44.09c-1.36-.79-3.11-.32-3.9,1.04-.79,1.36-.32,3.11,1.04,3.9s3.11.32,3.9-1.04c.79-1.36.32-3.11-1.04-3.9Z"/>
        <path class="cls-3" d="M144.35,49.03c1.36.79,3.11.32,3.9-1.04.79-1.36.32-3.11-1.04-3.9-1.36-.79-3.11-.32-3.9,1.04-.79,1.36-.32,3.11,1.04,3.9Z"/>
        <path class="cls-3" d="M154.91,44.09c-1.36-.79-3.11-.32-3.9,1.04-.79,1.36-.32,3.11,1.04,3.9s3.11.32,3.9-1.04c.79-1.36.32-3.11-1.04-3.9Z"/>
        <path class="cls-3" d="M136.69,53.92c.79-1.36.32-3.11-1.04-3.9-1.36-.79-3.11-.32-3.9,1.04-.79,1.36-.32,3.11,1.04,3.9s3.11.32,3.9-1.04Z"/>
        <path class="cls-3" d="M144.4,53.92c.79-1.36.32-3.11-1.04-3.9-1.36-.79-3.11-.32-3.9,1.04-.79,1.36-.32,3.11,1.04,3.9s3.11.32,3.9-1.04Z"/>
        <path class="cls-3" d="M152.1,53.92c.79-1.36.32-3.11-1.04-3.9-1.36-.79-3.11-.32-3.9,1.04-.79,1.36-.32,3.11,1.04,3.9s3.11.32,3.9-1.04Z"/>
        <path class="cls-3" d="M139.5,55.97c-1.36-.79-3.11-.32-3.9,1.04-.79,1.36-.32,3.11,1.04,3.9s3.11.32,3.9-1.04c.79-1.36.32-3.11-1.04-3.9Z"/>
        <path class="cls-3" d="M147.21,55.97c-1.36-.79-3.11-.32-3.9,1.04-.79,1.36-.32,3.11,1.04,3.9s3.11.32,3.9-1.04c.79-1.36.32-3.11-1.04-3.9Z"/>
        <path class="cls-3" d="M154.91,55.97c-1.36-.79-3.11-.32-3.9,1.04-.79,1.36-.32,3.11,1.04,3.9s3.11.32,3.9-1.04c.79-1.36.32-3.11-1.04-3.9Z"/>
      </g>
    </g>
  </g>
</svg>