<svg xmlns="http://www.w3.org/2000/svg" xmlns:xlink="http://www.w3.org/1999/xlink" width="128" height="128" version="1.0"><defs><linearGradient xlink:href="#a" id="b" gradientUnits="userSpaceOnUse" gradientTransform="matrix(.23214 0 0 .32895 -8.567 435.827)" x1="88.596" y1="-449.394" x2="536.596" y2="-449.394"/><linearGradient id="a"><stop offset="0" stop-color="#acabae"/><stop offset=".038" stop-color="#f7f7f7"/><stop offset=".077" stop-color="#deddda"/><stop offset=".923" stop-color="#b0afad"/><stop offset=".962" stop-color="#c0bfbc"/><stop offset="1" stop-color="#77767b"/></linearGradient></defs><g transform="translate(0 -172)"><rect ry="8" rx="8" y="188" x="12" height="100" width="104" style="marker:none" fill="url(#b)"/><rect style="marker:none" width="104" height="100" x="12" y="184" rx="8" ry="8" fill="#fff"/><g transform="translate(-104 -365.5)" color="#000"><rect ry="4" rx="4" y="625.5" x="128" height="8" width="80" style="marker:none" overflow="visible" fill="#e1dedb"/><rect ry="4" rx="4" y="625.5" x="128" height="8" width="48.125" style="marker:none" overflow="visible" fill="#3584e4"/></g><g stroke-width="8.743"><path d="M92.044 222.19c0-14.37-11.65-26.021-26.022-26.021-14.365 0-26.011 11.64-26.021 26.004l-.001-.001v20.137a5.915 5.915 0 0 0 5.917 5.902h20.115c14.367-.006 26.012-11.652 26.012-26.02z" fill="#294172"/><path d="M73.662 202.337c-6.745 0-12.213 5.468-12.213 12.213v6.473h-6.446c-6.746 0-12.213 5.44-12.213 12.185 0 6.746 5.467 12.214 12.213 12.214 6.745 0 12.213-5.468 12.213-12.214v-6.499h6.446c6.745 0 12.213-5.414 12.213-12.159 0-6.745-5.468-12.213-12.213-12.213zm-12.213 30.882a6.447 6.447 0 0 1-6.446 6.436c-3.56 0-6.473-2.886-6.473-6.446 0-3.56 2.913-6.5 6.473-6.5h5.536a.91.91 0 0 1 .91.91v.001zm12.213-12.196h-5.536a.91.91 0 0 1-.91-.91v-5.574a6.446 6.446 0 0 1 6.445-6.436c3.561 0 6.474 2.886 6.474 6.447 0 3.56-2.913 6.473-6.473 6.473z" fill="#3c6eb4"/><path d="M61.45 221.023v-6.473c0-6.745 5.467-12.213 12.212-12.213 1.024 0 1.75.115 2.698.363 1.382.362 2.51 1.493 2.51 2.811 0 1.592-1.155 2.75-2.882 2.75-.823 0-1.121-.158-2.326-.158a6.446 6.446 0 0 0-6.446 6.436v5.573c0 .503.407.91.91.91h4.236a2.84 2.84 0 0 1 2.852 2.844 2.838 2.838 0 0 1-2.852 2.843h-5.146v6.5c0 6.745-5.468 12.213-12.213 12.213-1.023 0-1.75-.116-2.698-.363-1.38-.362-2.51-1.494-2.51-2.811 0-1.592 1.156-2.75 2.883-2.75.822 0 1.12.157 2.325.157 3.556 0 6.44-2.88 6.447-6.436v-5.6a.91.91 0 0 0-.911-.91h-4.235a2.837 2.837 0 0 1-2.852-2.841c-.001-1.592 1.287-2.845 2.882-2.845h5.115z" fill="#fff"/></g></g></svg>