/* XPM */
static char * linux_fedora_xpm[] = {
"60 20 20 1",
" 	c None",
".	c #52A2DA",
"+	c #51A2DA",
"@	c #51A2DB",
"#	c #52A1DB",
"$	c #51A3DA",
"%	c #50A2DA",
"&	c #51A1DA",
"*	c #51A2D9",
"=	c #50A3D9",
"-	c #51A3D9",
";	c #50A2D9",
">	c #50A2DB",
",	c #50A3DA",
"'	c #50A3DB",
")	c #51A1DB",
"!	c #52A2D9",
"~	c #52A1D9",
"{	c #51A3DB",
"]	c #51A1D9",
"                                                            ",
"                                                            ",
"   .++@                    #$                               ",
"  %+++++                   ++                               ",
" &+$                       ++                               ",
" *+                        ++                               ",
" ++                        ++                               ",
" ++       +++.       +++++ ++    =++++-    +*;+++   ++++$   ",
" +++++  -++++++     +++++++++   ++++.+++   ++++++  +++++++  ",
" +++++  ++   *++   ++&   .+++  +++    ++@  +++          ++> ",
" ++    ++     +++ .+*     $++  ++      ++  ++           *++ ",
" ++    ++   ++++, &+       ++ '+.      .+) ++        !+++++ ",
" ++    ++$.+++~   ++       ++ &+#       ++ ++      ++++$%++ ",
" ++    ++++!      ++       ++  +{      ]+* ++     +++    ++ ",
" ++    +++         +*     $++  ++      ++  ++     ++     ++ ",
" ++     +++   .+&  @+&   ++++  .++%  *++&  ++     ++    +++ ",
" ++      +++++++    +++++++++   $++++++@   ++     ++++++@++ ",
" +.       %+++)       .&+~ $+     %&+&     {$       +%+  @+ ",
"                                                            ",
"                                                            "};
