/* XPM */
static char * linux_fedora_logo_xpm[] = {
"85 20 57 1",
" 	c None",
".	c #51A2DB",
"+	c #51A2DA",
"@	c #52A2DA",
"#	c #51A1DB",
"$	c #51A3DA",
"%	c #51A1DA",
"&	c #52A1D9",
"*	c #5FAADD",
"=	c #C6DFF1",
"-	c #F6F8F9",
";	c #E2EEF6",
">	c #7CB9E2",
",	c #51A2D9",
"'	c #C5DEF0",
")	c #B7D7ED",
"!	c #68AEDE",
"~	c #A0CBE9",
"{	c #EAF2F7",
"]	c #54A4DB",
"^	c #F4F7F9",
"/	c #58A6DB",
"(	c #E7F0F7",
"_	c #6BAFDF",
":	c #50A2DA",
"<	c #50A2D9",
"[	c #F7F9F9",
"}	c #5AA7DC",
"|	c #52A2D9",
"1	c #52A3DA",
"2	c #E5EFF6",
"3	c #F9FAFA",
"4	c #92C4E6",
"5	c #F9F9FA",
"6	c #FAFAFA",
"7	c #7AB7E2",
"8	c #50A2DB",
"9	c #A4CDEA",
"0	c #D8E8F3",
"a	c #71B3E0",
"b	c #6BB0DF",
"c	c #5EA9DD",
"d	c #EDF3F7",
"e	c #51A3D9",
"f	c #A7CEEA",
"g	c #CBE1F1",
"h	c #69AEDE",
"i	c #5CA8DC",
"j	c #B6D6ED",
"k	c #BAD9EE",
"l	c #51A3DB",
"m	c #50A3DB",
"n	c #54A3DB",
"o	c #A5CEEA",
"p	c #EAF1F7",
"q	c #F7F8F9",
"r	c #C9E0F0",
"                                                                                     ",
"          .+@@+#                                                                     ",
"        $+++++++++                                                                   ",
"       ++++++++++++        @++++                  %+                                 ",
"      ++++++++++++++      &++& .                  ++                                 ",
"     +++++++*=-;>++++     ,+                      ++                                 ",
"     +++++++')!~{]+++     ++                      ++                                 ",
"    ++++++++^/++(_+++#    ++      $+++       :++$ ++    ++++:    .+<+++  ,@++$       ",
"    .+++++++[+++~}+++.    ++++#  ++++++@   +++++++++   +++@+++   +++@.+  ++,+++      ",
"    ++++++++[+++++++++    +++@  +++   ++   ++    +++  ++|   ,++  ++%          ++     ",
"    +++1~23456-7++++++    ++    +@    %++ ++      ++  +$     8+  ++          %++     ",
"    +++90a1+[+++++++++    ++    +  +++++  +.      ++ :+       +@ ++       |+++++     ",
"    +++2a+++[++++++++@    ++    +@++@@    ++      ++ :+       +@ ++     +++%  @+     ",
"    +++(b++cd++++++++     ++    +++       %+      ++  +%     e+  ++     ++    ++     ",
"    +++fghijk++++++++     ++    ++l    ,   +@    +++  ++:    ++  ++     +%   m++     ",
"    +++nopqr*+++++++      ++     +++:@++   +++++++++   +++++++   ++     ++$+++++     ",
"    ++++++1++++++++       ++      @++++      :+++ .+    +++++    ++      ,++, +@     ",
"    ,++++++++++++,                                                                   ",
"     ++++++++++$                                                                     ",
"                                                                                     "};
